# xmcd
#
# Track frame offsets:
#	150
#	19266
#	34452
#	56041
#	73836
#	93934
#	113986
#	133166
#	148353
#	169878
#	187716
#	207645
#
# Disc length: 3036 seconds
#
# Revision: 1
# Processed by: cddbd v1.5.2PL0 Copyright (c) Steve Scherf et al.
# Submitted via: audiograbber 1.83.01
#
DISCID=be0bda0c
DTITLE=Karaoke Country Hot Hits - Country ChartBusters Vol.160
DYEAR=1900
DGENRE=Karaoke
TTITLE0=Breathe (Guide Vocals)
TTITLE1=Stuff That Matters (Guide Vocals)
TTITLE2=If You Ever Leave Me (Guide Vocals)
TTITLE3=The Whispering Wind (Guide Vocals)
TTITLE4=Memphis Women and Chicken (Guide Vocals)
TTITLE5=Something So Right (Guide Vocals)
TTITLE6=Breathe (Performance Tracks)
TTITLE7=Stuff that Matters (Performance Tracks)
TTITLE8=If You Ever Leave Me (Performance Tracks)
TTITLE9=The Whispering Wind (Performance Tracks)
TTITLE10=Memphis Women and Chicken (Performance Tracks)
TTITLE11=Something So Right (Performance Tracks)
EXTD=
EXTT0=
EXTT1=
EXTT2=
EXTT3=
EXTT4=
EXTT5=
EXTT6=
EXTT7=
EXTT8=
EXTT9=
EXTT10=
EXTT11=
PLAYORDER=
